<?xml version="1.0" encoding="UTF-8"?>
<svg version="1.1" xmlns="http://www.w3.org/2000/svg" width="896" height="896">
<path d="M0 0 C295.68 0 591.36 0 896 0 C896 295.68 896 591.36 896 896 C600.32 896 304.64 896 0 896 C0 600.32 0 304.64 0 0 Z " fill="#FEFEFE" transform="translate(0,0)"/>
<path d="M0 0 C12.74474299 -0.06987603 25.4894395 -0.12300074 38.2343359 -0.15543652 C44.15393333 -0.17101335 50.07339855 -0.19210385 55.99291992 -0.22631836 C61.71825501 -0.25919891 67.44346388 -0.27691284 73.16888618 -0.28463173 C75.34027655 -0.29012419 77.51166094 -0.30084762 79.68299675 -0.31719017 C98.7871218 -0.45510329 119.13394147 -0.22191081 135 12 C139.84247129 17.21496908 139.77269007 24.27113273 139.5703125 31.05078125 C137.71131984 43.92366876 128.97205643 54.59811452 118.875 62.3125 C117.58580146 63.21188159 116.29423596 64.10788262 115 65 C114.41476562 65.46277344 113.82953125 65.92554688 113.2265625 66.40234375 C107.72490723 70.69662218 102.08628156 72.4428926 95 72 C95 72.66 95 73.32 95 74 C95.70125 74.226875 96.4025 74.45375 97.125 74.6875 C102.24323088 77.02408366 106.64252429 80.59851874 109.30859375 85.640625 C111.05958291 91.61575187 111.51713972 100.05367069 108.65234375 105.6171875 C108.10707031 106.40351563 107.56179688 107.18984375 107 108 C106.54882812 108.8765625 106.09765625 109.753125 105.6328125 110.65625 C98.20373707 124.66756324 87.20815594 134.22023863 73 141 C72.39929688 141.28987793 71.79859375 141.57975586 71.1796875 141.87841797 C53.34753057 150.30600916 34.38295819 149.27821754 15.0625 149.1953125 C12.48462027 149.1915751 9.90673909 149.18873157 7.32885742 149.18673706 C1.28030396 149.17992893 -4.7681641 149.16423071 -10.81668568 149.14403808 C-17.71413384 149.12152145 -24.61158593 149.11064642 -31.50906181 149.10064721 C-45.67274732 149.07985873 -59.83637101 149.04478232 -74 149 C-71.83249333 141.28577264 -71.83249333 141.28577264 -70.3359375 138.34375 C-70.02253418 137.72137451 -69.70913086 137.09899902 -69.38623047 136.45776367 C-69.05252441 135.81170166 -68.71881836 135.16563965 -68.375 134.5 C-68.02453613 133.81075439 -67.67407227 133.12150879 -67.31298828 132.41137695 C-62.58746377 123.16170571 -57.6774758 114.01233517 -52.625 104.9375 C-50.66591551 101.37068857 -49.0678244 97.95095026 -48 94 C-47.34 94 -46.68 94 -46 94 C-45.67 92.845 -45.34 91.69 -45 90.5 C-43.39075657 85.64117322 -41.21840175 81.13249345 -38.9375 76.5625 C-38.58494141 75.85222656 -38.23238281 75.14195312 -37.86914062 74.41015625 C-36.44990143 71.6093806 -35.23474291 69.23474291 -33 67 C-32.29010978 65.37739379 -31.58584794 63.75203058 -30.9140625 62.11328125 C-29.89166156 59.74952522 -28.73866885 57.47850375 -27.5625 55.1875 C-25.05504591 50.24097694 -22.97275134 45.1798499 -21 40 C-20.34 40 -19.68 40 -19 40 C-18.7215625 39.13890625 -18.443125 38.2778125 -18.15625 37.390625 C-17.0418958 34.12285661 -15.81518203 30.94172224 -14.5 27.75 C-13.86578125 26.19539063 -13.86578125 26.19539063 -13.21875 24.609375 C-12 22 -12 22 -10 20 C-9.28591666 18.01643517 -8.61382258 16.01684563 -8 14 C-7.34 14 -6.68 14 -6 14 C-5.88785156 13.27425781 -5.77570313 12.54851562 -5.66015625 11.80078125 C-4.97038613 8.87436007 -3.94489186 6.77712191 -2.4375 4.1875 C-1.98246094 3.39730469 -1.52742188 2.60710937 -1.05859375 1.79296875 C-0.53458984 0.90544922 -0.53458984 0.90544922 0 0 Z " fill="#CF2826" transform="translate(152,345)"/>
<path d="M0 0 C13.2662188 -0.1164236 26.53231382 -0.20498255 39.79894161 -0.25906086 C45.9607913 -0.28503041 52.12228859 -0.32019538 58.28393555 -0.37719727 C64.24271109 -0.43197037 70.20115007 -0.46151531 76.16015816 -0.47438622 C78.42089693 -0.48354538 80.68161963 -0.50142835 82.94221306 -0.52865028 C99.81147889 -0.72350335 118.04876897 0.09358147 132 11 C136.51277517 15.88966628 137.26986972 20.52585705 137.3125 27.0625 C137.23310592 29.04281512 137.13751288 31.02287036 137 33 C136.34 33 135.68 33 135 33 C134.9278125 34.01191406 134.855625 35.02382813 134.78125 36.06640625 C134.1551333 40.38943767 132.08464082 43.49866632 129.5 46.9375 C129.04713623 47.54867676 128.59427246 48.15985352 128.12768555 48.78955078 C119.50201371 60.14475114 108.25543228 66.99126796 95 72 C95.60328125 72.49628906 96.2065625 72.99257813 96.828125 73.50390625 C107.33577911 82.43541224 107.33577911 82.43541224 108.3359375 89.30859375 C108.9429838 104.27461974 100.76043075 116.40655342 91 127 C74.87755127 143.03684281 49.91573301 149.09181827 27.83851624 149.12442017 C26.85523849 149.12082489 25.87196075 149.11722961 24.85888672 149.11352539 C23.26198753 149.11374443 23.26198753 149.11374443 21.63282776 149.1139679 C18.14842623 149.1132767 14.66407958 149.10552178 11.1796875 149.09765625 C8.75017323 149.09578925 6.32065858 149.09436668 3.8911438 149.09336853 C-2.47754979 149.08956558 -8.84622027 149.07975442 -15.21490479 149.06866455 C-21.72399584 149.05840249 -28.23309067 149.05386067 -34.7421875 149.04882812 C-47.49480148 149.03813003 -60.2473995 149.02127499 -73 149 C-72.37425576 144.64930659 -71.70285671 142.4305489 -69 139 C-68.25218095 137.30927868 -67.50783871 135.61654449 -66.80712891 133.90576172 C-65.99138769 131.97966495 -65.09239675 130.12417942 -64.1484375 128.2578125 C-63.79628174 127.55914062 -63.44412598 126.86046875 -63.08129883 126.140625 C-62.72447021 125.43421875 -62.3676416 124.7278125 -62 124 C-61.34440769 122.69042656 -60.68944634 121.38053704 -60.03515625 120.0703125 C-59.02676063 118.0532694 -58.01812725 116.03634702 -57.00878906 114.01977539 C-55.50376404 111.01217083 -54.00167538 108.00339034 -52.51171875 104.98828125 C-50.70120349 101.32801356 -48.87049949 97.71549912 -46.8125 94.1875 C-45.02566526 91.21670195 -45.02566526 91.21670195 -44.10546875 88.74609375 C-42.74439823 85.36505991 -41.13751043 82.12776658 -39.5 78.875 C-38.98095093 77.8387146 -38.98095093 77.8387146 -38.45141602 76.78149414 C-35.68757099 71.29354086 -32.8208309 65.8633646 -29.9375 60.4375 C-26.62303441 54.19293648 -23.47978075 47.90797881 -20.53613281 41.48095703 C-17.92010508 35.77728396 -15.12645026 30.17153448 -12.30029297 24.56958008 C-9.76862517 19.54537002 -7.25311662 14.51311996 -4.73828125 9.48046875 C-4.28022095 8.56406616 -3.82216064 7.64766357 -3.35021973 6.70349121 C-2.23336431 4.46905184 -1.11662656 2.23455374 0 0 Z " fill="#D02725" transform="translate(524,345)"/>
<path d="M0 0 C1.18580658 0.00444122 2.37161316 0.00888245 3.59335327 0.01345825 C4.57402519 0.01302017 4.57402519 0.01302017 5.57450867 0.01257324 C7.73896483 0.01396839 9.90307822 0.02953783 12.06747437 0.04519653 C13.56677055 0.04892602 15.06606916 0.05177329 16.56536865 0.05377197 C20.5142793 0.06141355 24.46304316 0.08106644 28.41189575 0.10317993 C32.44029759 0.12362713 36.46872311 0.13277127 40.49716187 0.14285278 C48.40347928 0.16431192 56.30967732 0.19845409 64.21591187 0.24050903 C64.15532593 1.24944214 64.09473999 2.25837524 64.03231812 3.29788208 C63.56840671 11.07570514 63.12428695 18.85409439 62.71591187 26.63504028 C62.59108472 28.98474027 62.46600692 31.33442682 62.34091187 33.68411255 C62.25635377 35.28658745 62.17305537 36.88912924 62.09091187 38.49172974 C61.96950919 40.8522056 61.84317025 43.21237382 61.71591187 45.57254028 C61.68046265 46.28602127 61.64501343 46.99950226 61.60848999 47.73460388 C61.42615711 51.03786287 61.03062127 54.0461676 60.21591187 57.24050903 C59.99744021 59.63843073 59.82347132 62.04049035 59.67294312 64.44363403 C59.57055382 66.02274003 59.4680915 67.6018413 59.36557007 69.18093872 C59.28395126 70.46889343 59.28395126 70.46889343 59.20068359 71.78286743 C57.6684147 95.86595427 55.84262657 119.92744091 54.02841187 143.99050903 C53.8887219 145.84487832 53.74904291 147.69924844 53.609375 149.55361938 C52.81361834 160.11607301 52.0150596 170.67831048 51.21591187 181.24050903 C31.08591187 181.24050903 10.95591187 181.24050903 -9.78408813 181.24050903 C-7.47584725 152.38749794 -7.47584725 152.38749794 -6.22158813 142.99050903 C-6.09590454 142.00050903 -5.97022095 141.01050903 -5.84072876 139.99050903 C-5.28707037 135.7003812 -4.64531259 131.48035786 -3.78408813 127.24050903 C-11.54008719 127.05273697 -19.29244839 126.96852288 -27.0506897 126.9536438 C-29.68505898 126.93669058 -32.3193908 126.8967012 -34.95303345 126.83255005 C-50.23828013 125.76565336 -50.23828013 125.76565336 -64.01260376 130.94216919 C-67.74738402 134.60385588 -70.40908077 138.98913904 -73.1212616 143.42993164 C-75.64844263 146.97873065 -77.46403474 148.93918596 -81.79840088 149.92857361 C-85.55913262 150.16703461 -89.2685647 150.14181053 -93.03018188 150.02175903 C-94.41019902 150.00681716 -95.79025892 149.99543932 -97.17033386 149.98745728 C-100.78329953 149.95707241 -104.39364617 149.87864114 -108.00558472 149.78982544 C-111.69897026 149.70763039 -115.39278381 149.67137496 -119.08682251 149.63113403 C-126.32043182 149.54562179 -133.5518915 149.40929489 -140.78408813 149.24050903 C-139.1632416 145.79649116 -137.35872569 143.63379385 -134.59658813 140.99050903 C-131.07641269 137.61212699 -127.86086839 134.06892828 -124.6690979 130.38601685 C-121.48079871 126.75711214 -118.16301253 123.25201722 -114.84658813 119.74050903 C-114.18207642 119.03281372 -113.5175647 118.32511841 -112.83291626 117.59597778 C-109.51508169 114.07540454 -106.16121564 110.60716659 -102.71768188 107.20925903 C-99.48298199 103.99708821 -96.46536209 100.65339554 -93.4906311 97.20095825 C-90.69433278 93.98861555 -87.76936739 90.89995173 -84.84658813 87.80300903 C-84.20399048 87.11980591 -83.56139282 86.43660278 -82.89932251 85.73269653 C-80.86221264 83.56740453 -78.82321777 81.40389888 -76.78408813 79.24050903 C-75.44932126 77.82266403 -74.11468502 76.40469603 -72.78018188 74.98660278 C-70.77736391 72.85840973 -68.77446761 70.73029109 -66.77114868 68.60256958 C-59.76375931 61.15950524 -52.76994871 53.70378026 -45.78408813 46.24050903 C-45.17790649 45.59307739 -44.57172485 44.94564575 -43.94717407 44.27859497 C-38.07153369 38.00098668 -32.20590859 31.71605562 -26.40908813 25.36550903 C-3.50326627 0.30263668 -3.50326627 0.30263668 0 0 Z " fill="#D02724" transform="translate(381.7840881347656,344.7594909667969)"/>
<path d="M0 0 C1.4248587 0.01494086 2.84975879 0.02631918 4.27467346 0.03430176 C8.00596722 0.06469414 11.73472714 0.1431336 15.46502686 0.23193359 C19.27907028 0.31411132 23.09352757 0.3503805 26.90820312 0.390625 C34.37875327 0.47615081 41.84722334 0.61248842 49.31640625 0.78125 C49.39708003 13.61187655 49.17794604 26.4015489 48.6953125 39.22265625 C48.63023671 41.00999702 48.56537629 42.79734565 48.50071716 44.58470154 C48.36590924 48.28970813 48.22867854 51.99461424 48.08959961 55.69946289 C47.91246556 60.42279859 47.74134781 65.14633006 47.57199192 69.86995029 C47.43961875 73.54451632 47.30418237 77.21896462 47.16782951 80.89338493 C47.10353682 82.63509733 47.04014743 84.37684334 46.97772408 86.11862373 C46.69710953 93.90568474 46.41494335 101.65888009 45.54380798 109.40693665 C45.06176152 114.44000888 44.97452598 119.4991478 44.81640625 124.55078125 C44.77580078 125.74877853 44.73519531 126.94677582 44.69335938 128.18107605 C44.56459317 131.9852043 44.44003689 135.78945162 44.31640625 139.59375 C44.19260532 143.38732958 44.06775386 147.18085872 43.93945312 150.97428894 C43.85996611 153.32504062 43.7829669 155.67587834 43.70898438 158.02680969 C43.45154965 165.65003201 42.90265571 173.16000703 42.31640625 180.78125 C22.18640625 180.78125 2.05640625 180.78125 -18.68359375 180.78125 C-18.68359375 164.67064983 -18.68359375 164.67064983 -18.0625 158.15234375 C-17.96617531 157.06784691 -17.96617531 157.06784691 -17.86790466 155.96144104 C-17.73379195 154.4651584 -17.59677325 152.96913325 -17.45678711 151.47338867 C-17.24345608 149.19052417 -17.03998917 146.90693072 -16.83789062 144.62304688 C-15.79884846 133.13450838 -15.79884846 133.13450838 -14.68359375 127.78125 C-22.4028311 127.54199851 -30.11750866 127.42334168 -37.84033203 127.38452148 C-40.4611935 127.35759372 -43.08193249 127.30406297 -45.70166016 127.22241211 C-61.44088626 126.17934354 -61.44088626 126.17934354 -75.43652344 132.00732422 C-80.01446137 136.50912892 -83.47978804 141.68346008 -86.66333008 147.23120117 C-91.66593308 151.45496549 -97.19328584 150.51681628 -103.515625 150.3671875 C-104.87609482 150.35598779 -106.23658894 150.34745126 -107.59709167 150.34146118 C-111.1668149 150.31862222 -114.73505819 150.25974676 -118.30419922 150.1932373 C-121.95064271 150.13170509 -125.5973269 150.10442316 -129.24414062 150.07421875 C-136.3912281 150.00999491 -143.53731398 149.9076787 -150.68359375 149.78125 C-149.28553428 146.86198205 -148.00262019 144.92011368 -145.62109375 142.71875 C-142.63033258 139.82665312 -140.02167518 136.7884225 -137.43359375 133.53125 C-133.34297845 128.44241288 -128.88648191 123.88624337 -124.234375 119.32421875 C-121.55057915 116.6486428 -119.07036772 113.87019808 -116.609375 110.9921875 C-113.60636409 107.54451169 -110.48639105 104.20641845 -107.37841797 100.85351562 C-104.8128446 98.08554435 -102.25208096 95.31387837 -99.7109375 92.5234375 C-95.3348173 87.71863614 -90.93394529 82.97445199 -86.29296875 78.421875 C-83.88614751 75.96831937 -81.67617095 73.3529914 -79.43359375 70.75 C-77.23349203 68.27488556 -74.88944861 65.97379273 -72.52661133 63.65551758 C-70.75241746 61.85124067 -69.09426713 59.99295309 -67.4453125 58.07421875 C-63.73643401 53.80876351 -59.88627584 49.69354268 -55.99609375 45.59375 C-50.67378886 39.96233683 -45.37753028 34.31011211 -40.13330078 28.60595703 C-37.46054709 25.7008689 -34.7766268 22.8069904 -32.078125 19.92578125 C-31.15314209 18.93795654 -31.15314209 18.93795654 -30.20947266 17.93017578 C-29.02927733 16.6709873 -27.84805075 15.41276413 -26.66552734 14.15576172 C-25.8449585 13.28008545 -25.8449585 13.28008545 -25.0078125 12.38671875 C-24.22009964 11.56884636 -24.22009964 11.56884636 -23.41647339 10.73445129 C-21.64650834 8.83895001 -21.64650834 8.83895001 -20.34393311 6.70661926 C-15.05702848 -0.95514298 -8.62635005 -0.26647284 0 0 Z " fill="#D02825" transform="translate(759.68359375,344.21875)"/>
<path d="M0 0 C8.90091629 0.80119222 18.88216741 2.78966934 26.16796875 8.28515625 C26.95214844 10.1730957 26.95214844 10.1730957 27.16796875 12.28515625 C26.10742188 13.89746094 26.10742188 13.89746094 24.44921875 15.45703125 C23.84988525 16.03501465 23.25055176 16.61299805 22.63305664 17.20849609 C21.98457764 17.81129395 21.33609863 18.4140918 20.66796875 19.03515625 C19.36286159 20.29118218 18.05945712 21.54897987 16.7578125 22.80859375 C16.13116699 23.41026367 15.50452148 24.01193359 14.85888672 24.63183594 C11.75006382 27.67153399 8.96381726 30.96152001 6.16796875 34.28515625 C4.85804674 35.78740808 3.545553 37.28742141 2.23046875 38.78515625 C1.21984375 39.94015625 0.20921875 41.09515625 -0.83203125 42.28515625 C4.11796875 42.28515625 9.06796875 42.28515625 14.16796875 42.28515625 C15.15796875 44.26515625 15.15796875 44.26515625 16.16796875 46.28515625 C15.71993896 46.70289307 15.27190918 47.12062988 14.81030273 47.55102539 C12.74082371 49.48195297 10.67314022 51.41479331 8.60546875 53.34765625 C7.90099609 54.00443359 7.19652344 54.66121094 6.47070312 55.33789062 C2.40495073 59.14133641 -1.5626122 63.00012014 -5.40209961 67.03295898 C-6.83203125 68.28515625 -6.83203125 68.28515625 -8.83203125 68.28515625 C-8.83203125 68.94515625 -8.83203125 69.60515625 -8.83203125 70.28515625 C-4.54203125 70.28515625 -0.25203125 70.28515625 4.16796875 70.28515625 C4.16796875 71.60515625 4.16796875 72.92515625 4.16796875 74.28515625 C2.16543842 76.19029909 0.25340705 77.78034266 -1.95703125 79.41015625 C-2.58722168 79.88952637 -3.21741211 80.36889648 -3.86669922 80.86279297 C-9.31620404 84.98004618 -14.87824862 88.94342269 -20.45703125 92.8828125 C-23.66307088 95.15284227 -26.81622028 97.48795842 -29.95703125 99.84765625 C-30.92125 100.56824219 -31.88546875 101.28882813 -32.87890625 102.03125 C-34.96208929 103.62119261 -37.00486414 105.22875046 -39.03515625 106.8828125 C-39.56608887 107.30554443 -40.09702148 107.72827637 -40.64404297 108.16381836 C-42.11997334 109.34073566 -43.58195039 110.53509009 -45.04296875 111.73046875 C-48.47590309 113.64406521 -50.11905279 113.32566644 -53.83203125 112.28515625 C-54.64453125 110.1171875 -54.64453125 110.1171875 -54.83203125 107.28515625 C-52.76953125 104.671875 -52.76953125 104.671875 -49.83203125 101.97265625 C-48.80681363 101.00448571 -47.78337774 100.03442503 -46.76171875 99.0625 C-46.25866211 98.59054199 -45.75560547 98.11858398 -45.23730469 97.63232422 C-40.10486586 92.71210229 -35.8484527 87.12722382 -31.83203125 81.28515625 C-33.09660156 81.30255859 -33.09660156 81.30255859 -34.38671875 81.3203125 C-35.48242188 81.32933594 -36.578125 81.33835937 -37.70703125 81.34765625 C-39.34285156 81.36505859 -39.34285156 81.36505859 -41.01171875 81.3828125 C-43.83203125 81.28515625 -43.83203125 81.28515625 -45.83203125 80.28515625 C-44.96970539 75.70296914 -42.23197562 73.16509877 -39.08203125 69.91015625 C-38.02331061 68.79953753 -36.96600694 67.68756625 -35.91015625 66.57421875 C-35.39646484 66.03313477 -34.88277344 65.49205078 -34.35351562 64.93457031 C-32.07625428 62.46583192 -29.95473894 59.88743864 -27.83203125 57.28515625 C-28.74726563 57.23617187 -29.6625 57.1871875 -30.60546875 57.13671875 C-31.79398438 57.06195313 -32.9825 56.9871875 -34.20703125 56.91015625 C-35.39039063 56.84054687 -36.57375 56.7709375 -37.79296875 56.69921875 C-40.83203125 56.28515625 -40.83203125 56.28515625 -42.83203125 54.28515625 C-42.77046521 48.39240628 -39.64467033 44.68228137 -36.26953125 40.16015625 C-35.16415496 38.63889904 -34.0599906 37.11676048 -32.95703125 35.59375 C-32.41820312 34.85495605 -31.879375 34.11616211 -31.32421875 33.35498047 C-29.40238055 30.68918462 -27.57667203 27.96725131 -25.76953125 25.22265625 C-22.55693414 20.36326566 -19.3044317 15.53336252 -16.01953125 10.72265625 C-15.55087646 10.03099365 -15.08222168 9.33933105 -14.59936523 8.62670898 C-13.93142944 7.65133179 -13.93142944 7.65133179 -13.25 6.65625 C-12.65868286 5.78891235 -12.65868286 5.78891235 -12.05541992 4.90405273 C-8.34785464 -0.00212675 -6.03804148 -0.18345436 0 0 Z " fill="#FAF7F6" transform="translate(197.83203125,365.71484375)"/>
<path d="M0 0 C4.19918185 -0.07430494 8.39801274 -0.12867413 12.59765625 -0.16479492 C14.02545846 -0.17985681 15.4532146 -0.20031062 16.88085938 -0.22631836 C18.93631373 -0.26281842 20.99115505 -0.27975166 23.046875 -0.29296875 C24.90070801 -0.31653442 24.90070801 -0.31653442 26.79199219 -0.34057617 C30.24671533 0.02619238 31.64508001 0.47559171 34 3 C34.63644512 6.88231522 35.02356659 9.3796543 32.89453125 12.75 C28.60791367 17.34690893 23.99809118 19.78350959 17.71704102 20.23706055 C13.82921598 20.29511049 9.94939513 20.26222087 6.0625 20.1875 C4.69728034 20.17242992 3.33204465 20.15874561 1.96679688 20.14648438 C-1.35588096 20.11126164 -4.67773181 20.06200041 -8 20 C-7.28280048 15.00730637 -5.77613497 11.06146 -3.4375 6.625 C-3.10814453 5.98433594 -2.77878906 5.34367187 -2.43945312 4.68359375 C-1.63360518 3.11861368 -0.81781507 1.55875979 0 0 Z " fill="#F9F0EE" transform="translate(538,435)"/>
<path d="M0 0 C4.41644598 -0.11608127 8.83250017 -0.1872132 13.25 -0.25 C15.13138672 -0.30027344 15.13138672 -0.30027344 17.05078125 -0.3515625 C18.25605469 -0.36445313 19.46132813 -0.37734375 20.703125 -0.390625 C21.81333008 -0.41157227 22.92353516 -0.43251953 24.06738281 -0.45410156 C27.66938086 0.10365038 28.83547514 1.11701487 31 4 C31.21190083 7.24914613 30.75813383 9.07637383 28.67578125 11.61328125 C21.09611933 18.73356972 12.45063065 19.44594613 2.4375 19.1875 C1.42880859 19.17396484 0.42011719 19.16042969 -0.61914062 19.14648438 C-3.08000621 19.11149576 -5.53970335 19.06241158 -8 19 C-7.20690534 14.46268162 -5.54985317 10.74907412 -3.4375 6.6875 C-2.9434668 5.71973633 -2.9434668 5.71973633 -2.43945312 4.73242188 C-1.63175745 3.15214772 -0.81662387 1.57567895 0 0 Z " fill="#FAF4F4" transform="translate(565,383)"/>
<path d="M0 0 C0.33 0 0.66 0 1 0 C0.67694341 6.00060425 0.34239029 12.00046917 0 18 C-0.0427002 18.76183594 -0.08540039 19.52367187 -0.12939453 20.30859375 C-0.24785898 22.39356811 -0.37282053 24.47804141 -0.5 26.5625 C-0.5721875 27.78066406 -0.644375 28.99882812 -0.71875 30.25390625 C-1 33 -1 33 -2 34 C-3.92667507 34.08748207 -5.85651861 34.10697334 -7.78515625 34.09765625 C-9.53989258 34.09282227 -9.53989258 34.09282227 -11.33007812 34.08789062 C-13.17762695 34.07532227 -13.17762695 34.07532227 -15.0625 34.0625 C-16.91584961 34.05573242 -16.91584961 34.05573242 -18.80664062 34.04882812 C-21.87114117 34.03699608 -24.93554721 34.02051173 -28 34 C-26.41549517 30.67557864 -24.64467867 28.32927052 -22.125 25.625 C-18.25090942 21.39985914 -14.47442065 17.10767616 -10.75 12.75 C-10.25516113 12.1720166 -9.76032227 11.5940332 -9.25048828 10.99853516 C-6.87205709 8.2142447 -4.52015866 5.41374869 -2.203125 2.578125 C-1.47609375 1.72734375 -0.7490625 0.8765625 0 0 Z " fill="#F9F0EE" transform="translate(751,401)"/>
<path d="M0 0 C0.66 0 1.32 0 2 0 C2.23399889 7.47496453 1.94534444 14.70672061 1.0625 22.125 C0.97564941 22.85904053 0.88879883 23.59308105 0.79931641 24.34936523 C0.41887105 27.36796358 -0.03526411 30.10579234 -1 33 C-9.58 33 -18.16 33 -27 33 C-23.26726036 28.02301381 -19.9575398 23.72789731 -15.75 19.3125 C-11.18842898 14.46894095 -7.08851822 9.39131171 -3.17285156 4.01293945 C-2.15885069 2.64193454 -1.08455574 1.31589934 0 0 Z " fill="#F9F1EF" transform="translate(383,402)"/>
<path d="M0 0 C0.33 0 0.66 0 1 0 C0.85991329 3.5210863 0.71189018 7.04179712 0.5625 10.5625 C0.52318359 11.55314453 0.48386719 12.54378906 0.44335938 13.56445312 C0.40146484 14.53447266 0.35957031 15.50449219 0.31640625 16.50390625 C0.27974854 17.38892822 0.24309082 18.2739502 0.20532227 19.18579102 C-0.0345123 22.47303596 -0.5338777 25.73714389 -1 29 C18.14 29 37.28 29 57 29 C57 25.7 57 22.4 57 19 C57.33 19 57.66 19 58 19 C58 22.96 58 26.92 58 31 C37.87 31 17.74 31 -3 31 C-1 6 -1 6 0 0 Z " fill="#CC625F" transform="translate(375,495)"/>
<path d="M0 0 C1.30112228 0.00007553 2.60224457 0.00015106 3.9427948 0.00022888 C5.36331216 0.00533554 6.78382912 0.01055154 8.2043457 0.01586914 C9.65737357 0.01773448 11.11040207 0.01915783 12.56343079 0.02015686 C16.38568868 0.02397293 20.2079085 0.03379546 24.03015137 0.04486084 C27.93130987 0.05509452 31.83247452 0.05965868 35.73364258 0.06469727 C43.38665471 0.07541854 51.0396355 0.09248404 58.69262695 0.11352539 C58.36262695 1.10352539 58.03262695 2.09352539 57.69262695 3.11352539 C57.69262695 2.45352539 57.69262695 1.79352539 57.69262695 1.11352539 C49.6678264 0.98868354 41.64567517 0.92438775 33.62002087 0.93474293 C29.89202705 0.93770666 26.16645269 0.92079032 22.43896484 0.85644531 C18.83285282 0.79496015 15.23021821 0.78830301 11.62374306 0.81769371 C10.25671867 0.81957924 8.88951777 0.80258634 7.52300072 0.76529884 C0.23361466 0.57926349 -4.89617036 1.06871461 -10.24814129 6.13899517 C-12.39121923 8.37951391 -14.37316811 10.68980458 -16.30737305 13.11352539 C-17.29737305 12.78352539 -18.28737305 12.45352539 -19.30737305 12.11352539 C-18.20456178 10.84151568 -17.10006536 9.57096686 -15.99487305 8.30102539 C-15.37999023 7.59333008 -14.76510742 6.88563477 -14.1315918 6.15649414 C-9.56730579 1.04488476 -6.99990816 -0.01353947 0 0 Z " fill="#C62727" transform="translate(386.307373046875,345.886474609375)"/>
<path d="M0 0 C1.23448883 0.00990463 2.46897766 0.01980927 3.74087524 0.03001404 C7.67482443 0.06912661 11.60595997 0.15695624 15.5390625 0.24609375 C18.20959463 0.28515932 20.88010031 0.31314853 23.55078125 0.34179688 C30.08949789 0.41887933 36.62657919 0.53594292 43.1640625 0.68359375 C43.1640625 2.33359375 43.1640625 3.98359375 43.1640625 5.68359375 C42.6690625 3.70359375 42.6690625 3.70359375 42.1640625 1.68359375 C24.3440625 1.68359375 6.5240625 1.68359375 -11.8359375 1.68359375 C-12.4959375 3.00359375 -13.1559375 4.32359375 -13.8359375 5.68359375 C-14.8259375 6.01359375 -15.8159375 6.34359375 -16.8359375 6.68359375 C-16.8359375 7.34359375 -16.8359375 8.00359375 -16.8359375 8.68359375 C-17.4959375 8.35359375 -18.1559375 8.02359375 -18.8359375 7.68359375 C-14.19799272 -0.43309721 -8.74795452 -0.26471053 0 0 Z " fill="#F7DEDA" transform="translate(701.8359375,471.31640625)"/>
<path d="M0 0 C0.33 1.32 0.66 2.64 1 4 C19.81 4.33 38.62 4.66 58 5 C58 5.33 58 5.66 58 6 C37.54 6 17.08 6 -4 6 C-2 2 -2 2 0 0 Z " fill="#C75554" transform="translate(245,488)"/>
<path d="M0 0 C1.68140327 0.00033989 1.68140327 0.00033989 3.39677429 0.00068665 C4.60622208 0.0161705 5.81566986 0.03165436 7.06176758 0.04760742 C8.30050125 0.05185226 9.53923492 0.05609711 10.81550598 0.06047058 C14.10528884 0.07442885 17.39463086 0.10137404 20.68426514 0.13458252 C24.04246629 0.16529685 27.40073201 0.17897878 30.7590332 0.1940918 C37.34579456 0.22720258 43.93226063 0.2774336 50.51879883 0.34057617 C50.51879883 1.99057617 50.51879883 3.64057617 50.51879883 5.34057617 C50.02379883 3.36057617 50.02379883 3.36057617 49.51879883 1.34057617 C42.06193043 1.38221441 34.60581027 1.45451086 27.14941406 1.5480957 C24.61302446 1.57631565 22.07654675 1.59752502 19.54003906 1.61157227 C15.89317683 1.63298661 12.24737518 1.67963238 8.60083008 1.73120117 C7.4673262 1.73242981 6.33382233 1.73365845 5.16596985 1.73492432 C-1.11927014 1.80497251 -1.11927014 1.80497251 -6.73632812 4.37866211 C-7.31213623 5.02609375 -7.88794434 5.67352539 -8.48120117 6.34057617 C-8.48120117 3.34057617 -8.48120117 3.34057617 -7.32377625 1.67436218 C-4.7952577 -0.15595818 -3.10645472 -0.02094239 0 0 Z " fill="#F7E0DC" transform="translate(327.481201171875,471.659423828125)"/>
<path d="M0 0 C0.33 0.66 0.66 1.32 1 2 C-1.1082153 7.68301515 -4.91602467 11.27061347 -9.1875 15.375 C-9.84169922 16.01566406 -10.49589844 16.65632813 -11.16992188 17.31640625 C-12.77330922 18.88468292 -14.38328872 20.44548219 -16 22 C-16.99 21.67 -17.98 21.34 -19 21 C-18.60208252 20.57702637 -18.20416504 20.15405273 -17.79418945 19.71826172 C-15.96521593 17.77213825 -14.13884621 15.82358916 -12.3125 13.875 C-11.68666016 13.20984375 -11.06082031 12.5446875 -10.41601562 11.859375 C-6.80763861 8.00540164 -3.33465583 4.09340161 0 0 Z " fill="#C53F3E" transform="translate(743,347)"/>
<path d="M0 0 C0.93423645 3.01031744 1.04449911 3.86650268 0 7 C7.59 7 15.18 7 23 7 C19.14259767 8.92870117 17.88370357 9.24283376 13.796875 9.1953125 C12.8171875 9.18886719 11.8375 9.18242187 10.828125 9.17578125 C9.81234375 9.15902344 8.7965625 9.14226562 7.75 9.125 C6.71875 9.11597656 5.6875 9.10695313 4.625 9.09765625 C2.08309713 9.07412011 -0.4583328 9.04124023 -3 9 C-2.38550003 5.66177043 -1.65439171 2.97790508 0 0 Z " fill="#EABEBC" transform="translate(560,393)"/>
<path d="M0 0 C0.33 0 0.66 0 1 0 C0.40748169 11.00571237 -0.23778447 22.00463556 -1 33 C-1.33 33 -1.66 33 -2 33 C-2 23.76 -2 14.52 -2 5 C-2.99 5.495 -2.99 5.495 -4 6 C-2.84826645 3.53199953 -1.95216435 1.95216435 0 0 Z " fill="#EEC4C1" transform="translate(751,401)"/>
<path d="M0 0 C0.33 0 0.66 0 1 0 C1.18451025 18.82004556 1.18451025 18.82004556 0 28 C-0.33 28 -0.66 28 -1 28 C-1.83602203 18.36315148 -2.47750841 9.48005282 0 0 Z " fill="#C63C38" transform="translate(378,472)"/>
<path d="M0 0 C1.32 0.33 2.64 0.66 4 1 C0.37 4.63 -3.26 8.26 -7 12 C-7.99 11.67 -8.98 11.34 -10 11 C-8.89718873 9.72799029 -7.79269231 8.45744147 -6.6875 7.1875 C-6.07261719 6.47980469 -5.45773437 5.77210938 -4.82421875 5.04296875 C-4.22222656 4.36878906 -3.62023437 3.69460938 -3 3 C-2.51144531 2.39800781 -2.02289063 1.79601562 -1.51953125 1.17578125 C-0.76736328 0.59376953 -0.76736328 0.59376953 0 0 Z " fill="#C53F3D" transform="translate(377,347)"/>
<path d="M0 0 C2.42130331 3.63195496 2.21022785 5.38349348 2.125 9.6875 C2.10695313 10.86699219 2.08890625 12.04648437 2.0703125 13.26171875 C2.03550781 14.61716797 2.03550781 14.61716797 2 16 C1.34 16 0.68 16 0 16 C-0.103125 17.093125 -0.20625 18.18625 -0.3125 19.3125 C-0.97307727 22.85559629 -1.2027092 23.93243723 -4 26 C-4 24.35 -4 22.7 -4 21 C-3.34 21 -2.68 21 -2 21 C-1.855625 19.700625 -1.71125 18.40125 -1.5625 17.0625 C-1.125 13.125 -1.125 13.125 0 12 C0.07244053 9.98035801 0.08377188 7.95832876 0.0625 5.9375 C0.05347656 4.83277344 0.04445313 3.72804688 0.03515625 2.58984375 C0.02355469 1.73519531 0.01195312 0.88054687 0 0 Z " fill="#CC5E5B" transform="translate(659,362)"/>
<path d="M0 0 C0.33 1.32 0.66 2.64 1 4 C0.360625 4.268125 -0.27875 4.53625 -0.9375 4.8125 C-3.33131686 5.88667752 -3.33131686 5.88667752 -4 9 C-1.36 9 1.28 9 4 9 C4 9.33 4 9.66 4 10 C0.04 10 -3.92 10 -8 10 C-5.77502475 5.55004949 -3.55366005 3.39915309 0 0 Z " fill="#C96663" transform="translate(205,398)"/>
<path d="M0 0 C0.77734375 1.703125 0.77734375 1.703125 1 4 C-0.87109375 6.359375 -0.87109375 6.359375 -3.4375 8.75 C-4.70400391 9.94882812 -4.70400391 9.94882812 -5.99609375 11.171875 C-6.65738281 11.77515625 -7.31867188 12.3784375 -8 13 C-8.99 12.67 -9.98 12.34 -11 12 C-10.37351562 11.38511719 -9.74703125 10.77023437 -9.1015625 10.13671875 C-8.28429687 9.32847656 -7.46703125 8.52023437 -6.625 7.6875 C-5.40683594 6.48673828 -5.40683594 6.48673828 -4.1640625 5.26171875 C-1.87395158 2.99990063 -1.87395158 2.99990063 0 0 Z " fill="#C64140" transform="translate(342,384)"/>
<path d="M0 0 C0.33 0.99 0.66 1.98 1 3 C-2.3 6.3 -5.6 9.6 -9 13 C-9.66 12.67 -10.32 12.34 -11 12 C-3.70159453 3.55353075 -3.70159453 3.55353075 0 0 Z " fill="#C74B49" transform="translate(686,409)"/>
<path d="M0 0 C0 4.24645065 -1.81750806 6.38524772 -4 10 C-2.02 10 -0.04 10 2 10 C1.67 10.66 1.34 11.32 1 12 C-1.97 11.505 -1.97 11.505 -5 11 C-5.875 8.875 -5.875 8.875 -6 6 C-4.2531134 3.70485976 -2.19996058 1.85561893 0 0 Z " fill="#F5D3D0" transform="translate(149,467)"/>
<path d="M0 0 C0.55171875 0.24621094 1.1034375 0.49242187 1.671875 0.74609375 C-2.12630265 3.96878993 -5.90204354 6.49129753 -10.328125 8.74609375 C-10.988125 8.41609375 -11.648125 8.08609375 -12.328125 7.74609375 C-10.75795307 6.37668807 -9.17147109 5.0259648 -7.578125 3.68359375 C-6.25554687 2.55244141 -6.25554687 2.55244141 -4.90625 1.3984375 C-2.328125 -0.25390625 -2.328125 -0.25390625 0 0 Z " fill="#C94946" transform="translate(173.328125,462.25390625)"/>
<path d="M0 0 C0.66 0 1.32 0 2 0 C1.43040847 3.62613199 0.07625466 5.25517741 -2.5625 7.75 C-3.52349609 8.67039062 -3.52349609 8.67039062 -4.50390625 9.609375 C-5.24447266 10.29773438 -5.24447266 10.29773438 -6 11 C-6.99 10.67 -7.98 10.34 -9 10 C-8.27683594 9.29423828 -8.27683594 9.29423828 -7.5390625 8.57421875 C-6.90742188 7.95160156 -6.27578125 7.32898438 -5.625 6.6875 C-4.68527344 5.76517578 -4.68527344 5.76517578 -3.7265625 4.82421875 C-1.81913393 2.91187472 -1.81913393 2.91187472 0 0 Z " fill="#C73F3B" transform="translate(313,415)"/>
<path d="M0 0 C1 2 1 2 0 6 C3.96 6 7.92 6 12 6 C11.67 6.99 11.34 7.98 11 9 C11 8.34 11 7.68 11 7 C10.15695313 7.01160156 9.31390625 7.02320313 8.4453125 7.03515625 C7.34960938 7.04417969 6.25390625 7.05320312 5.125 7.0625 C4.03445312 7.07410156 2.94390625 7.08570313 1.8203125 7.09765625 C-1 7 -1 7 -3 6 C-2.42655063 3.13275314 -2.1385485 2.1385485 0 0 Z " fill="#EBB3B0" transform="translate(155,440)"/>
<path d="M0 0 C0.66 0 1.32 0 2 0 C2 4.29 2 8.58 2 13 C1.67 13 1.34 13 1 13 C0.67 10.36 0.34 7.72 0 5 C-0.99 5.99 -1.98 6.98 -3 8 C-3.66 7.67 -4.32 7.34 -5 7 C-4.21654285 5.82780457 -3.42297164 4.66236332 -2.625 3.5 C-2.18414062 2.8503125 -1.74328125 2.200625 -1.2890625 1.53125 C-0.65097656 0.77328125 -0.65097656 0.77328125 0 0 Z " fill="#EDBEBA" transform="translate(383,402)"/>
<path d="M0 0 C1.140625 1.734375 1.140625 1.734375 2 4 C1.171875 6.140625 1.171875 6.140625 -0.25 8.25 C-0.70890625 8.95640625 -1.1678125 9.6628125 -1.640625 10.390625 C-2.08921875 10.92171875 -2.5378125 11.4528125 -3 12 C-3.66 12 -4.32 12 -5 12 C-3.68938409 7.76570244 -2.05643741 3.92592596 0 0 Z " fill="#CB5453" transform="translate(513,367)"/>
<path d="M0 0 C0.66 0.33 1.32 0.66 2 1 C-0.64 3.97 -3.28 6.94 -6 10 C-6.99 9.67 -7.98 9.34 -9 9 C-6.03 6.03 -3.06 3.06 0 0 Z " fill="#C94F4E" transform="translate(207,417)"/>
<path d="M0 0 C0.33 0.99 0.66 1.98 1 3 C-0.21484375 4.82421875 -0.21484375 4.82421875 -1.9375 6.6875 C-2.50339844 7.31011719 -3.06929687 7.93273437 -3.65234375 8.57421875 C-4.09707031 9.04472656 -4.54179688 9.51523437 -5 10 C-5.99 9.67 -6.98 9.34 -8 9 C-5.36 6.03 -2.72 3.06 0 0 Z " fill="#C64543" transform="translate(704,389)"/>
<path d="M0 0 C0.33 0.66 0.66 1.32 1 2 C-0.76227632 5.61730402 -2.64326421 7.80075931 -6 10 C-6.66 9.67 -7.32 9.34 -8 9 C-5.36 6.03 -2.72 3.06 0 0 Z " fill="#C54E4A" transform="translate(254,478)"/>
<path d="M0 0 C0.66 0.33 1.32 0.66 2 1 C1.38125 2.0725 0.7625 3.145 0.125 4.25 C-1.3323679 6.79780984 -2.72924491 9.35259355 -4 12 C-4 9.69 -4 7.38 -4 5 C-3.34 5 -2.68 5 -2 5 C-2 4.01 -2 3.02 -2 2 C-1.34 2 -0.68 2 0 2 C0 1.34 0 0.68 0 0 Z " fill="#F3D9D5" transform="translate(149,347)"/>
<path d="M0 0 C0.66 0 1.32 0 2 0 C1.49396008 2.16874252 1.00016187 3.99967627 0 6 C-0.66 6 -1.32 6 -2 6 C-2 6.99 -2 7.98 -2 9 C-2.66 9 -3.32 9 -4 9 C-2.80100302 5.9168649 -1.52299523 2.93720508 0 0 Z " fill="#CA514E" transform="translate(95,458)"/>
<path d="M0 0 C0.33 0.66 0.66 1.32 1 2 C-0.65 3.98 -2.3 5.96 -4 8 C-4.99 7.67 -5.98 7.34 -7 7 C-4.69 4.69 -2.38 2.38 0 0 Z " fill="#C44341" transform="translate(279,452)"/>
<path d="M0 0 C0 3.90838866 -1.50567876 5.11594107 -4 8 C-4.99 7.67 -5.98 7.34 -7 7 C-4.69 4.69 -2.38 2.38 0 0 Z " fill="#C6504D" transform="translate(291,439)"/>
<path d="M0 0 C-6.75 4 -6.75 4 -9 4 C-9 3.34 -9 2.68 -9 2 C-8.01 2 -7.02 2 -6 2 C-6 1.34 -6 0.68 -6 0 C-3.50907189 -1.24546405 -2.58919267 -0.7767578 0 0 Z " fill="#C33631" transform="translate(606,479)"/>
<path d="M0 0 C0 3 0 3 -1.375 4.6875 C-3 6 -3 6 -5 6 C-5 6.66 -5 7.32 -5 8 C-5.66 7.67 -6.32 7.34 -7 7 C-4.78071806 4.09197539 -3.07030857 2.04687238 0 0 Z " fill="#F7DCD8" transform="translate(749,405)"/>
<path d="M0 0 C0 3 0 3 -1.5 4.6875 C-1.995 5.120625 -2.49 5.55375 -3 6 C-3.99 5.67 -4.98 5.34 -6 5 C-3.375 1.125 -3.375 1.125 0 0 Z " fill="#C53C3B" transform="translate(720,374)"/>
<path d="M0 0 C1.32 0.33 2.64 0.66 4 1 C1.69 2.65 -0.62 4.3 -3 6 C-3 3 -3 3 -1.75 1.25 C-1.1725 0.8375 -0.595 0.425 0 0 Z " fill="#F3CFCA" transform="translate(322,472)"/>
<path d="M0 0 C0 3.57575896 -1.08840607 5.05295935 -3 8 C-3.99 7.67 -4.98 7.34 -6 7 C-4.02 4.69 -2.04 2.38 0 0 Z " fill="#F3C7C3" transform="translate(624,460)"/>
<path d="M0 0 C-0.66 0.66 -1.32 1.32 -2 2 C-1.34 2.33 -0.68 2.66 0 3 C-0.33 3.66 -0.66 4.32 -1 5 C-2.65 3.35 -4.3 1.7 -6 0 C-3.50907189 -1.24546405 -2.58919267 -0.7767578 0 0 Z " fill="#F1D5CF" transform="translate(624,416)"/>
</svg>
